<?xml version="1.0" standalone="no"?>
<!DOCTYPE svg PUBLIC "-//W3C//DTD SVG 20010904//EN"
 "http://www.w3.org/TR/2001/REC-SVG-20010904/DTD/svg10.dtd">
<svg version="1.0" xmlns="http://www.w3.org/2000/svg"
 width="74.000000pt" height="78.000000pt" viewBox="0 0 74.000000 78.000000"
 preserveAspectRatio="xMidYMid meet">
<metadata>
Created by potrace 1.16, written by Peter Selinger 2001-2019
</metadata>
<g transform="translate(0.000000,78.000000) scale(0.100000,-0.100000)"
fill="#000000" stroke="none">
<path d="M251 688 c-28 -88 -141 -560 -136 -569 4 -5 15 -9 25 -9 20 0 28 18
55 130 23 96 20 91 52 75 49 -26 128 -12 162 28 18 22 28 21 36 -1 6 -20 45
-42 74 -42 21 0 56 35 69 70 17 48 22 80 12 80 -5 0 -13 -12 -16 -27 -4 -16
-15 -45 -26 -66 -15 -29 -24 -38 -41 -35 -34 5 -33 57 7 216 42 163 42 172 17
172 -29 0 -36 -16 -72 -165 -31 -132 -36 -142 -75 -182 -33 -34 -48 -43 -76
-43 -39 0 -63 20 -73 62 -4 17 6 80 29 173 20 81 34 151 30 156 -13 21 -43 8
-53 -23z"/>
</g>
</svg>
