<?xml version="1.0" standalone="no"?>
<!DOCTYPE svg PUBLIC "-//W3C//DTD SVG 20010904//EN"
 "http://www.w3.org/TR/2001/REC-SVG-20010904/DTD/svg10.dtd">
<svg version="1.0" xmlns="http://www.w3.org/2000/svg"
 width="99.000000pt" height="94.000000pt" viewBox="0 0 99.000000 94.000000"
 preserveAspectRatio="xMidYMid meet">
<metadata>
Created by potrace 1.16, written by Peter Selinger 2001-2019
</metadata>
<g transform="translate(0.000000,94.000000) scale(0.100000,-0.100000)"
fill="#000000" stroke="none">
<path d="M649 855 c-34 -18 -66 -82 -52 -104 14 -22 47 -20 51 3 3 11 -4 26
-14 33 -17 13 -17 15 8 39 55 55 141 23 154 -58 9 -53 -19 -101 -118 -204 -48
-50 -88 -94 -88 -97 0 -4 56 -7 125 -7 112 0 125 2 125 18 0 9 2 35 5 57 l5
40 -15 -32 -15 -33 -85 0 c-47 0 -85 1 -85 3 0 2 39 37 86 77 47 40 92 86 100
101 19 37 18 99 -2 127 -34 49 -128 68 -185 37z"/>
<path d="M205 506 c-73 -32 -133 -108 -155 -198 -16 -62 -6 -111 31 -153 105
-119 322 26 322 214 0 31 -5 66 -12 79 -11 22 -11 22 43 22 67 0 86 7 86 31 0
18 -9 19 -142 19 -95 -1 -153 -5 -173 -14z m125 -63 c19 -24 21 -37 17 -84
-16 -183 -178 -303 -240 -177 -16 32 -17 45 -8 93 23 123 84 195 167 195 34 0
47 -5 64 -27z"/>
</g>
</svg>
