<?xml version="1.0" encoding="UTF-8" standalone="no"?>
<!-- Created with Inkscape (http://www.inkscape.org/) -->

<svg
   xmlns:dc="http://purl.org/dc/elements/1.1/"
   xmlns:cc="http://creativecommons.org/ns#"
   xmlns:rdf="http://www.w3.org/1999/02/22-rdf-syntax-ns#"
   xmlns:svg="http://www.w3.org/2000/svg"
   xmlns="http://www.w3.org/2000/svg"
   xmlns:sodipodi="http://sodipodi.sourceforge.net/DTD/sodipodi-0.dtd"
   xmlns:inkscape="http://www.inkscape.org/namespaces/inkscape"
   width="210mm"
   height="297mm"
   viewBox="0 0 210 297"
   version="1.1"
   id="svg8"
   inkscape:version="0.92.4 (5da689c313, 2019-01-14)"
   sodipodi:docname="vrstevnice.svg">
  <defs
     id="defs2">
    <inkscape:path-effect
       effect="bspline"
       id="path-effect856"
       is_visible="true"
       weight="33.333333"
       steps="2"
       helper_size="0"
       apply_no_weight="true"
       apply_with_weight="true"
       only_selected="false" />
    <inkscape:path-effect
       effect="bspline"
       id="path-effect852"
       is_visible="true"
       weight="33.333333"
       steps="2"
       helper_size="0"
       apply_no_weight="true"
       apply_with_weight="true"
       only_selected="false" />
    <inkscape:path-effect
       effect="bspline"
       id="path-effect848"
       is_visible="true"
       weight="33.333333"
       steps="2"
       helper_size="0"
       apply_no_weight="true"
       apply_with_weight="true"
       only_selected="false" />
    <inkscape:path-effect
       effect="bspline"
       id="path-effect840"
       is_visible="true"
       weight="33.333333"
       steps="2"
       helper_size="0"
       apply_no_weight="true"
       apply_with_weight="true"
       only_selected="false" />
    <inkscape:path-effect
       effect="bspline"
       id="path-effect836"
       is_visible="true"
       weight="33.333333"
       steps="2"
       helper_size="0"
       apply_no_weight="true"
       apply_with_weight="true"
       only_selected="false" />
    <inkscape:path-effect
       effect="bspline"
       id="path-effect832"
       is_visible="true"
       weight="33.333333"
       steps="2"
       helper_size="0"
       apply_no_weight="true"
       apply_with_weight="true"
       only_selected="false" />
    <inkscape:path-effect
       effect="bspline"
       id="path-effect828"
       is_visible="true"
       weight="33.333333"
       steps="2"
       helper_size="0"
       apply_no_weight="true"
       apply_with_weight="true"
       only_selected="false" />
  </defs>
  <sodipodi:namedview
     id="base"
     pagecolor="#ffffff"
     bordercolor="#666666"
     borderopacity="1.0"
     inkscape:pageopacity="0.0"
     inkscape:pageshadow="2"
     inkscape:zoom="0.7"
     inkscape:cx="513.42236"
     inkscape:cy="797.02929"
     inkscape:document-units="mm"
     inkscape:current-layer="layer1"
     showgrid="false"
     inkscape:window-width="1920"
     inkscape:window-height="1001"
     inkscape:window-x="-9"
     inkscape:window-y="-9"
     inkscape:window-maximized="1" />
  <metadata
     id="metadata5">
    <rdf:RDF>
      <cc:Work
         rdf:about="">
        <dc:format>image/svg+xml</dc:format>
        <dc:type
           rdf:resource="http://purl.org/dc/dcmitype/StillImage" />
        <dc:title />
      </cc:Work>
    </rdf:RDF>
  </metadata>
  <g
     inkscape:label="Vrstva 1"
     inkscape:groupmode="layer"
     id="layer1">
    <flowRoot
       xml:space="preserve"
       id="flowRoot827"
       style="fill:black;fill-opacity:1;stroke:none;font-family:'Agency FB';font-style:normal;font-weight:normal;font-size:40px;line-height:1.25;letter-spacing:0px;word-spacing:0px;-inkscape-font-specification:'Agency FB';font-stretch:normal;font-variant:normal"><flowRegion
         id="flowRegion829"><rect
           id="rect831"
           width="107.58125"
           height="58.083771"
           x="242.43661"
           y="558.85455" /></flowRegion><flowPara
         id="flowPara833"></flowPara></flowRoot>    <g
       id="g1054"
       inkscape:export-xdpi="120"
       inkscape:export-ydpi="120">
      <path
         sodipodi:nodetypes="ccccccccccccc"
         inkscape:original-d="m 64.209537,90.495149 c -2.063248,0.363473 -4.126374,0.727143 -6.190539,1.091214 -1.566273,1.653876 -3.132221,3.307396 -4.698729,4.961491 -0.400708,2.13827 -0.801542,4.276046 -1.202711,6.414466 0.802185,0.71256 1.603881,1.42518 2.405425,2.13816 1.871112,-0.35662 3.742039,-0.71298 5.612659,-1.06908 1.470009,-0.62379 2.94023,-1.24752 4.409948,-1.87089 2.227027,0.0443 4.365667,0.0888 6.548104,0.13364 2.360864,0.0443 4.722027,-2.7e-4 7.082642,0 0.891064,-1.29192 1.782061,-2.583872 2.672696,-3.875411 0.222936,-1.781644 0.445712,-3.563858 0.668174,-5.345391 -1.077668,-1.37375 -2.155957,-2.747689 -3.234336,-4.121141 -1.873328,0.0371 -3.746913,0.07447 -5.620767,0.112098"
         inkscape:path-effect="#path-effect828"
         inkscape:connector-curvature="0"
         id="path826"
         d="m 64.209537,90.495149 c -2.063211,0.363685 -4.126337,0.727354 -5.941578,1.736219 -1.815241,1.008864 -3.38119,2.662384 -4.364899,4.55855 -0.983709,1.896167 -1.384541,4.033942 -1.184052,5.459592 0.200489,1.42565 1.002185,2.13827 2.338656,2.31641 1.336471,0.17815 3.207396,-0.17822 4.877718,-0.6682 1.670323,-0.48998 3.140543,-1.11371 4.988877,-1.40274 1.848335,-0.28902 3.986992,-0.24537 6.258645,-0.2231 2.271654,0.0223 4.632817,0.0223 6.258628,-0.62371 1.62581,-0.64598 2.51681,-1.93793 3.07351,-3.474517 0.556699,-1.536586 0.779476,-3.3188 0.35184,-4.896313 -0.427636,-1.577513 -1.505925,-2.951452 -2.98163,-3.619612 -1.475705,-0.66816 -3.34929,-0.630794 -5.223149,-0.593423"
         style="fill:none;stroke:#000000;stroke-width:0.465;stroke-linecap:butt;stroke-linejoin:miter;stroke-miterlimit:4;stroke-dasharray:none;stroke-opacity:1" />
      <path
         sodipodi:nodetypes="cccccccccc"
         inkscape:original-d="m 111.92985,105.87388 c -1.48034,-0.30846 -2.96085,-0.61663 -4.44164,-0.92454 -0.77227,-1.46439 -1.54495,-2.92879 -2.31765,-4.39245 0.44564,-1.47002 0.89116,-2.940222 1.33635,-4.40994 1.24725,-0.980044 2.49478,-1.960243 3.74177,-2.939966 1.6035,-0.178403 3.2075,-0.356624 4.81085,-0.53454 2.22711,0.979548 4.45476,1.959713 6.68174,2.939965 1.5147,1.202381 3.02932,2.405161 4.54358,3.608139 -0.24724,1.215462 -0.49472,2.431102 -0.74252,3.647282 -2.01185,0.6152 -4.02346,1.23051 -6.03559,1.84616"
         inkscape:path-effect="#path-effect832"
         inkscape:connector-curvature="0"
         id="path830"
         d="m 111.92985,105.87388 c -1.4804,-0.30815 -2.96091,-0.61632 -4.08757,-1.50254 -1.12666,-0.88622 -1.89934,-2.35062 -2.06279,-3.81757 -0.16345,-1.466949 0.28206,-2.937152 1.12838,-4.161989 0.84632,-1.224838 2.09385,-2.205039 3.51909,-2.784003 1.42525,-0.578964 3.02925,-0.757186 4.94439,-0.356327 1.91515,0.40086 4.1428,1.381025 6.0136,2.472326 1.87079,1.091301 3.38541,2.294085 4.01894,3.503139 0.63352,1.209054 0.38604,2.424694 -0.74366,3.340484 -1.1297,0.9158 -3.14131,1.53111 -5.15349,2.14659"
         style="fill:none;stroke:#000000;stroke-width:0.465;stroke-linecap:butt;stroke-linejoin:miter;stroke-miterlimit:4;stroke-dasharray:none;stroke-opacity:1" />
      <path
         sodipodi:nodetypes="cccccccccccccccccc"
         inkscape:original-d="m 84.89189,82.744331 c -4.419839,-0.120822 -8.842174,-0.24144 -13.263658,-0.361763 -4.499065,1.024334 -8.99781,1.959713 -13.49711,2.939965 -3.429929,2.360777 -6.770563,4.632407 -10.156243,6.949006 -1.291653,2.36083 -2.583341,4.721498 -3.875407,7.082645 -0.311592,2.049076 -0.623364,4.097866 -0.935443,6.147196 1.470459,1.55904 2.940227,3.11788 4.409946,4.67722 1.826617,0.267 3.652948,0.53427 5.479025,0.80181 4.899613,-0.80198 9.800149,-1.60388 14.699824,-2.40543 2.628255,0.35608 5.256565,0.71246 7.884451,1.06908 2.984519,1.20235 5.969283,2.40516 8.953529,3.60814 6.013556,0.48971 12.027395,0.97972 18.040696,1.46998 6.28084,-0.35661 12.56193,-0.71298 18.8425,-1.06908 4.4991,-1.02475 8.99834,-2.13842 13.49711,-3.20723 1.11381,-2.36098 2.22751,-4.72203 3.34087,-7.08264 -0.35605,-2.27175 -0.80155,-4.543851 -1.20271,-6.815376 -2.89489,-1.826437 -5.79058,-3.652948 -8.68626,-5.479026 -11.34525,-2.348944 -22.70869,-4.701337 -34.063438,-7.051608"
         inkscape:path-effect="#path-effect836"
         inkscape:connector-curvature="0"
         id="path834"
         d="m 84.89189,82.744331 c -4.419846,-0.12055 -8.842181,-0.241168 -13.307063,0.189536 -4.464881,0.430704 -8.954362,1.408611 -12.922257,3.074264 -3.967894,1.665654 -7.301973,3.946865 -9.640705,6.285526 -2.338732,2.338661 -3.630418,4.69933 -4.432311,6.90445 -0.801893,2.205123 -1.113665,4.253913 -0.5345,6.058243 0.579165,1.80432 2.04893,3.36317 3.697212,4.27636 1.648282,0.91319 3.474613,1.18046 6.837498,0.9132 3.362885,-0.26726 8.263419,-1.06917 12.027348,-1.29187 3.763928,-0.22269 6.392238,0.13369 9.198396,0.91319 2.806159,0.7795 5.790921,1.98231 10.289875,2.82864 4.498954,0.84632 10.512793,1.33634 16.659877,1.40314 6.14709,0.0668 12.42818,-0.28957 17.81303,-1.0011 5.38484,-0.71153 9.8941,-1.78304 12.70031,-3.49806 2.80621,-1.71501 3.91991,-4.07606 4.27687,-6.38838 0.35697,-2.31232 -0.0453,-4.592039 -1.69331,-6.640892 -1.64797,-2.048854 -4.54366,-3.875366 -11.66406,-5.962877 -7.1204,-2.087511 -18.48384,-4.439903 -29.838528,-6.790481"
         style="fill:none;stroke:#000000;stroke-width:0.465;stroke-linecap:butt;stroke-linejoin:miter;stroke-miterlimit:4;stroke-dasharray:none;stroke-opacity:1" />
      <path
         sodipodi:nodetypes="cccccccccccccccccccccccccccccccc"
         inkscape:original-d="m 151.3218,90.433078 c -0.41639,-2.06014 -0.83304,-4.120011 -1.24996,-6.179623 -0.66784,-1.336471 -1.33609,-2.672961 -2.00452,-4.009043 -1.87048,-0.668385 -3.74151,-1.336612 -5.61266,-2.00452 -6.01379,0.534315 -12.02687,1.157901 -18.0407,1.737251 -4.94445,0.133376 -9.8887,0.267004 -14.83346,0.400905 -6.50364,-2.049444 -13.006846,-4.098399 -19.51067,-6.1472 -5.077986,-0.84664 -10.155978,-1.692971 -15.234364,-2.539061 -4.008948,0.534297 -8.017819,1.068814 -12.027127,1.603616 -3.029014,0.890702 -6.057845,1.870623 -9.087165,2.806332 -3.118205,2.093564 -6.236023,4.186958 -9.354434,6.280833 -2.1381,2.628143 -4.276047,5.256035 -6.414468,7.884451 -1.06893,2.940023 -2.137891,5.879666 -3.207234,8.819893 0.04481,3.296418 0.08935,6.592388 0.133636,9.888978 1.069427,2.49445 2.13842,4.98876 3.207234,7.48354 1.693058,1.33615 3.385677,2.67243 5.078121,4.00905 2.361097,0.80152 4.722024,1.42517 7.082642,2.13815 2.539143,-0.3566 5.078386,-0.71298 7.617182,-1.06908 3.118046,-1.15829 6.236552,-2.3166 9.354434,-3.4745 1.470096,-0.44567 2.940227,-0.89116 4.409945,-1.33635 2.227032,0.5787 4.454758,1.15791 6.68174,1.73725 4.721637,1.29144 9.443786,2.58334 14.165283,3.87541 4.989108,0.31154 9.978325,0.62337 14.967095,0.93545 3.96456,-0.35661 7.92926,-0.71299 11.89349,-1.06908 3.20727,-0.0893 6.41474,-0.17845 9.6217,-0.26727 4.3653,0.35606 8.73107,0.80154 13.09621,1.20271 3.0737,-0.17843 6.14747,-0.35662 9.2208,-0.53454 2.9845,-0.98016 5.96928,-1.96024 8.95353,-2.93996 0.75745,-1.47009 1.51479,-2.94023 2.27179,-4.40995 -0.57869,-0.98004 -1.1579,-1.96024 -1.73725,-2.93996 -1.73685,-2.27188 -3.47424,-4.54385 -5.21176,-6.81538 -1.09087,-2.30961 -2.20181,-4.66089 -3.30311,-6.990925"
         inkscape:path-effect="#path-effect840"
         inkscape:connector-curvature="0"
         id="path838"
         d="m 151.3218,90.433078 c -0.41669,-2.060078 -0.83335,-4.119949 -1.37573,-5.817942 -0.54239,-1.697994 -1.21063,-3.034486 -2.47999,-4.036639 -1.26935,-1.002153 -3.14038,-1.670378 -7.08066,-1.715145 -3.94028,-0.04477 -9.95761,0.53468 -15.43676,0.891052 -5.47914,0.356373 -10.42339,0.490001 -16.14765,-0.46774 -5.72425,-0.957741 -12.227456,-3.006697 -18.018336,-4.454426 -5.79088,-1.447729 -10.868872,-2.294062 -15.412499,-2.449995 -4.543627,-0.155934 -8.552498,0.378582 -12.065369,1.111639 -3.51287,0.733058 -6.55426,1.672311 -9.628028,3.186894 -3.073769,1.514583 -6.191588,3.607976 -8.819878,5.968943 -2.62829,2.360968 -4.766236,4.98886 -6.369972,7.773064 -1.603736,2.784205 -2.672697,5.723848 -3.18502,8.842199 -0.512323,3.118348 -0.467783,6.414318 0.08905,9.309908 0.556829,2.89559 1.62582,5.3899 3.0068,7.30544 1.38098,1.91554 3.073599,3.25182 5.112761,4.28008 2.039162,1.02826 4.375443,1.73355 6.825387,1.9117 2.449943,0.17814 4.989186,-0.17824 7.817617,-0.93548 2.828432,-0.75723 5.946941,-1.91553 8.240928,-2.71731 2.293987,-0.80177 3.764117,-1.24727 5.612427,-1.18044 1.84831,0.0668 4.076037,0.64603 7.550344,1.58143 3.474307,0.93539 8.196454,2.2273 13.051791,3.02908 4.855336,0.80179 9.844551,1.11362 14.321241,1.09134 4.47668,-0.0223 8.44138,-0.37867 12.02712,-0.60138 3.58575,-0.22271 6.79322,-0.31181 10.5773,-0.15609 3.78409,0.15572 8.15391,0.55703 11.87335,0.66838 3.71944,0.11134 6.79321,-0.0669 9.82215,-0.64593 3.02893,-0.57908 6.01371,-1.55916 7.88448,-2.78417 1.87078,-1.22501 2.62812,-2.69515 2.71717,-3.91991 0.0891,-1.22476 -0.49016,-2.20496 -1.64826,-3.83074 -1.15809,-1.62578 -2.89548,-3.89775 -4.30968,-6.18836 -1.41421,-2.29061 -2.52515,-4.64189 -3.62613,-6.972075"
         style="fill:none;stroke:#000000;stroke-width:0.465;stroke-linecap:butt;stroke-linejoin:miter;stroke-miterlimit:4;stroke-dasharray:none;stroke-opacity:1" />
      <path
         sodipodi:nodetypes="ccccccccccccccccccccccccccccccccc"
         inkscape:original-d="m 92.007534,130.22382 c 2.116146,1.02426 4.232032,2.04879 6.347652,3.07359 3.207254,-0.13389 6.414734,-0.26753 9.621704,-0.4009 11.53641,-1.11379 23.07453,-2.22751 34.6114,-3.34087 5.61279,-0.1339 11.22559,-0.26754 16.83798,-0.4009 2.13832,-0.26753 4.27658,-0.53481 6.41447,-0.80181 1.51458,-1.24735 3.02932,-2.49478 4.54358,-3.74178 0.84646,-2.36069 1.69297,-4.72202 2.53906,-7.08264 -0.13335,-3.56338 -0.267,-7.12745 -0.4009,-10.69078 -0.89057,-2.58369 -1.69244,-5.16748 -2.53906,-7.750818 -1.46963,-2.806419 -2.85061,-5.702014 -4.27631,-8.552624 -0.97969,-2.761946 -1.95972,-5.523833 -2.93997,-8.285356 -0.40062,-2.049216 -0.80154,-4.098396 -1.20271,-6.147197 0.0893,-1.470101 0.17844,-2.940229 0.26727,-4.409948 -1.06861,-1.469966 -2.13789,-2.940229 -3.20724,-4.409947 -3.47413,-0.356614 -6.94874,-0.712984 -10.42351,-1.069079 -3.47447,0.667954 -6.94874,1.336083 -10.42351,2.004523 -4.97075,0.618014 -9.93976,1.236044 -14.91174,1.854675 -2.77927,0.106213 -8.3367,0.319359 -8.3367,0.319359 m -7.43823,-0.934599 c 0,0 -15.088807,-2.162906 -22.633601,-3.243961 -5.879661,-0.668438 -11.759594,-1.336611 -17.639787,-2.00452 -5.478978,0.667935 -10.957787,1.336082 -16.437078,2.00452 -4.142634,2.271649 -8.285088,4.543317 -12.428032,6.815373 -2.538989,2.80628 -5.077857,5.612398 -7.617182,8.418992 -1.64806,4.90016 -3.296057,9.799616 -4.944485,14.699824 0.312099,3.697202 0.623893,7.394193 0.935443,11.091683 1.024865,4.14269 2.049331,8.2851 3.0736,12.42804 2.628535,2.98438 5.256564,5.96875 7.884451,8.95353 3.162972,0.80155 6.325642,1.51426 9.488069,2.27179 3.608184,-0.75749 7.216539,-1.5148 10.824414,-2.27179 4.098049,-0.5793 8.28562,-1.15844 12.428034,-1.73726 4.432168,0.3338 8.864704,0.66791 13.296657,1.00227"
         inkscape:path-effect="#path-effect848"
         inkscape:connector-curvature="0"
         id="path846"
         d="m 92.007534,130.22382 c 2.11599,1.02458 4.231876,2.04911 6.893396,2.49453 2.66152,0.44543 5.869,0.31178 13.2407,-0.31181 7.37169,-0.62359 18.90981,-1.7373 27.48463,-2.36092 8.57483,-0.62362 14.18763,-0.75725 18.06299,-0.95771 3.87537,-0.20046 6.01363,-0.46775 7.83986,-1.22502 1.82623,-0.75728 3.34097,-2.00472 4.52124,-3.8086 1.18028,-1.80389 2.02679,-4.16521 2.3831,-7.12718 0.35631,-2.96197 0.22265,-6.52604 -0.26949,-9.60609 -0.49214,-3.08005 -1.33424,-5.65067 -2.46564,-8.35888 -1.13139,-2.708215 -2.56583,-5.577084 -3.76852,-8.383385 -1.2027,-2.8063 -2.18272,-5.568189 -2.87315,-7.973584 -0.69043,-2.405396 -1.09136,-4.454575 -1.24724,-6.214062 -0.15588,-1.759487 -0.0668,-3.229618 -0.5567,-4.699344 -0.48992,-1.469726 -1.5592,-2.939987 -3.83081,-3.853118 -2.2716,-0.913131 -5.74621,-1.269502 -9.22079,-1.113614 -3.47459,0.155888 -6.94886,0.824018 -11.17163,1.467256 -4.22276,0.643238 -9.19177,1.261267 -13.06741,1.623702 -3.87563,0.362435 -6.65417,0.468874 -9.43307,0.575327 m -7.43823,-0.934599 C 99.546236,68.375399 92.00192,67.29411 85.289698,66.41936 78.577475,65.544611 72.697542,64.876438 67.017987,64.87642 c -5.679555,-1.8e-5 -11.158364,0.668129 -15.969316,2.138103 -4.810951,1.469975 -8.953405,3.741643 -12.294404,6.280759 -3.340998,2.539116 -5.879866,5.345234 -7.97363,9.198591 -2.093764,3.853357 -3.741763,8.752813 -4.40999,13.051556 -0.668228,4.298744 -0.356433,7.995731 0.311761,11.915851 0.668195,3.92012 1.692661,8.06253 3.519078,11.62627 1.826416,3.56375 4.454444,6.54812 7.355021,8.42025 2.900578,1.87213 6.053159,2.62697 9.438524,2.62694 3.385365,-3e-5 6.99372,-0.75734 10.847102,-1.42243 3.853383,-0.66508 8.040101,-1.25032 12.327365,-1.37281 4.287265,-0.12248 8.7198,0.21164 13.151775,0.54571"
         style="fill:none;stroke:#000000;stroke-width:0.465;stroke-linecap:butt;stroke-linejoin:miter;stroke-miterlimit:4;stroke-dasharray:none;stroke-opacity:1" />
      <path
         sodipodi:nodetypes="ccccccccccccccccccccccccccccc"
         inkscape:original-d="m 19.176589,87.260236 c -0.422913,5.18922 -0.846089,10.378703 -1.269531,15.568454 0.445741,5.47909 0.891163,10.95778 1.336348,16.43707 3.130529,4.71331 6.260847,9.42697 9.390791,14.14073 4.496059,2.04429 8.992012,4.08892 13.487614,6.13377 7.252126,-1.54667 14.504679,-3.09323 21.755606,-4.63923 2.583629,-1.42557 5.167474,-2.85114 7.750816,-4.27631 10.780135,3.69696 21.559977,7.39418 32.339597,11.09168 8.59746,-1.55934 17.19464,-3.11841 25.79152,-4.67721 4.49892,-0.93563 8.99834,-1.96025 13.49711,-2.93997 2.89549,0.71241 5.79111,1.42517 8.68626,2.13816 6.682,1.24699 13.28929,2.48035 20.04522,3.74177 2.1172,-4.23414 4.18749,-8.37471 6.28083,-12.56167 0.49021,-2.98448 0.98026,-5.96928 1.46999,-8.95353 0.0893,-1.9155 0.17844,-3.83112 0.26726,-5.74629 -0.0888,-3.65242 -0.17791,-7.30563 -0.26726,-10.95805 -1.5587,-3.652691 -3.11789,-7.305634 -4.67722,-10.958051 -1.42512,-4.588232 -2.85061,-9.17652 -4.27631,-13.764381 0.17843,-3.519186 0.35662,-7.038361 0.53453,-10.557148 -0.44514,-2.271876 -0.89063,-4.543845 -1.33634,-6.815373 -3.65209,-1.781899 -7.30511,-3.563858 -10.95805,-5.34539 -6.68168,-0.04481 -13.36321,-0.08935 -20.04522,-0.133633 -5.96899,1.692508 -11.93777,3.385148 -17.90706,5.078122 -3.7417,0.712491 -7.48328,1.425172 -11.22531,2.138156 -3.38543,-0.178459 -6.85966,-0.356624 -10.289883,-0.534541 C 92.34136,58.238765 85.125609,55.610807 77.909067,52.98292 70.692906,52.804472 63.476777,52.626296 56.260235,52.448383 47.57393,56.724581 38.887982,61.000742 30.201457,65.277319 c -2.895261,4.588029 -5.790576,9.175988 -8.686261,13.76438"
         inkscape:path-effect="#path-effect852"
         inkscape:connector-curvature="0"
         id="path850"
         d="m 19.176589,87.260236 c -0.423154,5.1892 -0.846331,10.378683 -0.835203,15.713124 0.01113,5.33444 0.456551,10.81313 2.244396,15.90952 1.787846,5.09639 4.918165,9.81005 8.731247,13.18914 3.813082,3.37908 8.309036,5.42371 14.182993,5.67274 5.873957,0.24903 13.126511,-1.29753 18.043793,-2.78337 4.917282,-1.48584 7.501127,-2.91141 14.182785,-1.7754 6.681658,1.13601 17.4615,4.83323 27.15011,5.90226 9.68862,1.06902 18.2858,-0.49005 24.82907,-1.75853 6.54327,-1.26849 11.05195,-2.25058 14.74902,-2.38418 3.69707,-0.1336 6.59269,0.57917 11.38128,1.55915 4.78858,0.97998 11.39587,2.21334 15.83241,0.72681 4.43654,-1.48654 6.50683,-5.62712 7.79855,-9.21283 1.29173,-3.5857 1.78177,-6.57051 2.07129,-9.02037 0.28952,-2.44986 0.37862,-4.36548 0.37861,-7.14927 0,-2.78378 -0.0891,-6.43699 -0.91315,-10.08948 -0.82405,-3.652495 -2.38323,-7.30544 -3.87546,-11.425782 -1.49223,-4.120342 -2.91772,-8.708631 -3.54132,-12.76221 -0.6236,-4.053578 -0.44541,-7.572754 -0.57906,-10.468048 -0.13364,-2.895295 -0.57912,-5.167266 -2.62795,-7.193851 -2.04882,-2.026585 -5.70184,-3.808545 -10.86908,-4.721741 -5.16723,-0.913195 -11.84876,-0.957738 -18.17424,-0.133669 -6.32547,0.82407 -12.29425,2.516709 -17.14975,3.719457 -4.8555,1.202748 -8.59708,1.91543 -12.1609,2.183881 -3.56381,0.268451 -7.03792,0.08798 -12.361355,-1.315263 -5.323431,-1.40324 -12.539182,-4.031199 -19.755479,-5.43439 -7.216297,-1.40319 -14.432426,-1.581366 -22.383819,0.467696 -7.951393,2.049061 -16.637342,6.32522 -22.428296,10.757447 -5.790955,4.432227 -8.68627,9.020186 -11.581885,13.608622"
         style="fill:none;stroke:#000000;stroke-width:0.465;stroke-linecap:butt;stroke-linejoin:miter;stroke-miterlimit:4;stroke-dasharray:none;stroke-opacity:1" />
      <path
         sodipodi:nodetypes="cccccccccccccccccccccccccc"
         inkscape:original-d="m 32.213788,59.308328 c 4.969963,-2.943282 9.939662,-5.8863 14.909098,-8.829054 5.307217,-0.759382 10.614169,-1.5185 15.920854,-2.277353 5.469454,0.62904 10.938648,1.258345 16.407574,1.887914 8.06769,2.518378 16.135118,5.037021 24.202276,7.555928 11.06059,-2.595877 22.12091,-5.191489 33.18098,-7.786838 9.29388,-0.298106 18.58748,-0.595946 27.88083,-0.893523 4.97564,3.293215 9.95102,6.586691 14.92612,9.880432 -1.05407,4.534904 -2.10834,9.06979 -3.163,13.605512 1.07284,4.795596 3.21751,14.38667 3.21751,14.38667 m 1.99354,7.514417 c 0,0 2.97608,12.507897 4.4637,18.762147 0.37824,4.66139 0.75622,9.32315 1.13393,13.98512 -2.8977,4.91368 -5.79537,9.82712 -8.69345,14.74107 -6.04774,1.19674 -12.09498,2.39359 -18.14286,3.59078 -5.10267,-2.33124 -10.20509,-4.66198 -15.30803,-6.99256 -5.9215,1.44867 -11.84299,2.89755 -17.76489,4.34672 -9.10487,1.09512 -18.2088,2.19035 -27.31396,3.28597 -5.447307,-2.04058 -10.894593,-4.08079 -16.342285,-6.12079 -4.598586,-1.26022 -9.197155,-2.39411 -13.796132,-3.59077 -7.874552,3.02366 -15.748476,6.04725 -23.62351,9.07142 -6.866535,-1.19723 -13.73287,-2.39411 -20.599702,-3.59077 -4.283645,-7.6861 -8.567196,-15.3713 -12.851191,-23.05654 0.504227,-11.6544 1.008201,-23.308801 1.511905,-34.962802 1.32315,-3.275981 2.646098,-6.551853 3.96875,-9.827382 2.33089,-2.960788 4.661971,-5.921891 6.99256,-8.882441"
         inkscape:path-effect="#path-effect856"
         inkscape:connector-curvature="0"
         id="path854"
         d="m 32.213788,59.308328 c 4.97001,-2.943202 9.939709,-5.88622 15.078028,-7.737217 5.138319,-1.850997 10.445271,-2.610115 15.833308,-2.674987 5.388037,-0.06487 10.857231,0.564433 17.625506,2.138419 6.768275,1.573986 14.835703,4.09263 24.39965,4.054082 9.56395,-0.03855 20.62427,-2.634158 30.80122,-4.080854 10.17696,-1.446696 19.47056,-1.744537 26.60495,-0.246693 7.13439,1.497844 12.10977,4.791324 14.07029,8.70547 1.96052,3.914146 0.90625,8.449032 0.91528,13.114748 0.009,4.665716 1.08151,9.461163 2.15401,14.25672 m 1.99354,7.514417 c 1.4879,6.254047 2.97577,12.507967 3.90871,17.965767 0.93294,5.45779 1.31092,10.11955 0.051,14.90734 -1.25989,4.78779 -4.15756,9.70123 -8.63041,12.7567 -4.47285,3.05547 -10.52009,4.25232 -16.09546,3.68536 -5.57537,-0.56697 -10.67779,-2.8977 -16.18991,-3.33873 -5.51212,-0.44102 -11.43361,1.00786 -18.94701,2.28002 -7.51339,1.27217 -16.61732,2.3674 -23.89363,1.89496 -7.276306,-0.47243 -12.723592,-2.51264 -17.75439,-4.13326 -5.030798,-1.62061 -9.614011,-2.8135 -15.850707,-1.90008 -6.236697,0.91341 -14.110623,3.937 -21.48146,4.85055 -7.370838,0.91355 -14.237172,-0.28333 -19.812542,-4.72477 -5.57537,-4.44144 -9.858924,-12.12664 -11.748775,-21.79656 -1.889851,-9.66991 -1.385877,-21.324312 -0.472392,-28.789325 0.913485,-7.465013 2.236433,-10.740885 4.063255,-13.85903 1.826821,-3.118145 4.157902,-6.079248 6.488526,-9.03977"
         style="fill:none;stroke:#000000;stroke-width:0.465;stroke-linecap:butt;stroke-linejoin:miter;stroke-miterlimit:4;stroke-dasharray:none;stroke-opacity:1" />
      <flowRoot
         transform="matrix(-0.20991474,0.16105943,-0.16105943,-0.20991474,183.82292,160.0505)"
         style="font-style:normal;font-variant:normal;font-weight:normal;font-stretch:normal;font-size:40px;line-height:1.25;font-family:'Agency FB';-inkscape-font-specification:'Agency FB';letter-spacing:0px;word-spacing:0px;fill:#000000;fill-opacity:1;stroke:none"
         id="flowRoot835"
         xml:space="preserve"><flowRegion
           id="flowRegion837"><rect
             y="618.23395"
             x="225"
             height="46.428555"
             width="54.285732"
             id="rect839" /></flowRegion><flowPara
           style="font-style:normal;font-variant:normal;font-weight:normal;font-stretch:normal;font-size:16px;font-family:Arial;-inkscape-font-specification:Arial"
           id="flowPara841">225</flowPara></flowRoot>      <flowRoot
         transform="matrix(-0.08105695,0.25186129,-0.25186129,-0.08105695,203.25733,75.542453)"
         style="font-style:normal;font-variant:normal;font-weight:normal;font-stretch:normal;font-size:40px;line-height:1.25;font-family:'Agency FB';-inkscape-font-specification:'Agency FB';letter-spacing:0px;word-spacing:0px;fill:#000000;fill-opacity:1;stroke:none"
         id="flowRoot835-6"
         xml:space="preserve"><flowRegion
           id="flowRegion837-0"><rect
             y="618.23395"
             x="225"
             height="46.428555"
             width="54.285732"
             id="rect839-0" /></flowRegion><flowPara
           style="font-style:normal;font-variant:normal;font-weight:normal;font-stretch:normal;font-size:16px;font-family:Arial;-inkscape-font-specification:Arial"
           id="flowPara841-0">235</flowPara></flowRoot>      <flowRoot
         transform="matrix(0.25510909,0.07016901,-0.07016901,0.25510909,72.876312,-53.554993)"
         style="font-style:normal;font-variant:normal;font-weight:normal;font-stretch:normal;font-size:40px;line-height:1.25;font-family:'Agency FB';-inkscape-font-specification:'Agency FB';letter-spacing:0px;word-spacing:0px;fill:#000000;fill-opacity:1;stroke:none"
         id="flowRoot835-4"
         xml:space="preserve"><flowRegion
           id="flowRegion837-5"><rect
             y="618.23395"
             x="225"
             height="46.428555"
             width="54.285732"
             id="rect839-4" /></flowRegion><flowPara
           style="font-style:normal;font-variant:normal;font-weight:normal;font-stretch:normal;font-size:16px;font-family:Arial;-inkscape-font-specification:Arial"
           id="flowPara841-6">245</flowPara></flowRoot>      <flowRoot
         transform="matrix(-0.0287133,-0.26302069,0.26302069,-0.0287133,-12.634677,175.97492)"
         style="font-style:normal;font-variant:normal;font-weight:normal;font-stretch:normal;font-size:40px;line-height:1.25;font-family:'Agency FB';-inkscape-font-specification:'Agency FB';letter-spacing:0px;word-spacing:0px;fill:#000000;fill-opacity:1;stroke:none"
         id="flowRoot835-61"
         xml:space="preserve"><flowRegion
           id="flowRegion837-1"><rect
             y="618.23395"
             x="225"
             height="46.428555"
             width="54.285732"
             id="rect839-6" /></flowRegion><flowPara
           style="font-style:normal;font-variant:normal;font-weight:normal;font-stretch:normal;font-size:16px;font-family:Arial;-inkscape-font-specification:Arial"
           id="flowPara841-02">255</flowPara></flowRoot>      <flowRoot
         transform="matrix(-0.26054117,-0.0460721,0.0460721,-0.26054117,122.00014,263.52912)"
         style="font-style:normal;font-variant:normal;font-weight:normal;font-stretch:normal;font-size:40px;line-height:1.25;font-family:'Agency FB';-inkscape-font-specification:'Agency FB';letter-spacing:0px;word-spacing:0px;fill:#000000;fill-opacity:1;stroke:none"
         id="flowRoot835-0"
         xml:space="preserve"><flowRegion
           id="flowRegion837-8"><rect
             y="618.23395"
             x="225"
             height="46.428555"
             width="54.285732"
             id="rect839-8" /></flowRegion><flowPara
           style="font-style:normal;font-variant:normal;font-weight:normal;font-stretch:normal;font-size:16px;font-family:Arial;-inkscape-font-specification:Arial"
           id="flowPara841-1">265</flowPara></flowRoot>      <flowRoot
         inkscape:transform-center-y="1.3229167"
         inkscape:transform-center-x="1.3229167"
         transform="matrix(0.26236555,-0.03418559,0.03418559,0.26236555,30.831686,-56.965589)"
         style="font-style:normal;font-variant:normal;font-weight:normal;font-stretch:normal;font-size:40px;line-height:1.25;font-family:'Agency FB';-inkscape-font-specification:'Agency FB';letter-spacing:0px;word-spacing:0px;fill:#000000;fill-opacity:1;stroke:none"
         id="flowRoot835-2"
         xml:space="preserve"><flowRegion
           id="flowRegion837-2"><rect
             y="618.23395"
             x="225"
             height="46.428555"
             width="54.285732"
             id="rect839-46" /></flowRegion><flowPara
           style="font-style:normal;font-variant:normal;font-weight:normal;font-stretch:normal;font-size:16px;font-family:Arial;-inkscape-font-specification:Arial"
           id="flowPara841-7">275</flowPara></flowRoot>      <flowRoot
         transform="matrix(-0.26152936,0.0400841,-0.0400841,-0.26152936,157.0189,249.87377)"
         style="font-style:normal;font-variant:normal;font-weight:normal;font-stretch:normal;font-size:40px;line-height:1.25;font-family:'Agency FB';-inkscape-font-specification:'Agency FB';letter-spacing:0px;word-spacing:0px;fill:#000000;fill-opacity:1;stroke:none"
         id="flowRoot835-2-3"
         xml:space="preserve"><flowRegion
           id="flowRegion837-2-6"><rect
             y="618.23395"
             x="225"
             height="46.428555"
             width="54.285732"
             id="rect839-46-5" /></flowRegion><flowPara
           style="font-style:normal;font-variant:normal;font-weight:normal;font-stretch:normal;font-size:16px;font-family:Arial;-inkscape-font-specification:Arial"
           id="flowPara841-7-4">275</flowPara></flowRoot>      <flowRoot
         transform="matrix(-0.06145914,-0.25734629,0.25734629,-0.06145914,27.991365,191.98207)"
         style="font-style:normal;font-variant:normal;font-weight:normal;font-stretch:normal;font-size:40px;line-height:1.25;font-family:'Agency FB';-inkscape-font-specification:'Agency FB';letter-spacing:0px;word-spacing:0px;fill:#000000;fill-opacity:1;stroke:none"
         id="flowRoot835-1"
         xml:space="preserve"><flowRegion
           id="flowRegion837-54"><rect
             y="618.23395"
             x="225"
             height="46.428555"
             width="54.285732"
             id="rect839-2" /></flowRegion><flowPara
           style="font-style:normal;font-variant:normal;font-weight:normal;font-stretch:normal;font-size:16px;font-family:Arial;-inkscape-font-specification:Arial"
           id="flowPara841-08">225</flowPara></flowRoot>      <flowRoot
         inkscape:transform-center-y="-2.0789583"
         inkscape:transform-center-x="-0.61377052"
         transform="matrix(-0.2637031,-0.0215641,0.0215641,-0.2637031,159.65959,246.51009)"
         style="font-style:normal;font-variant:normal;font-weight:normal;font-stretch:normal;font-size:40px;line-height:1.25;font-family:'Agency FB';-inkscape-font-specification:'Agency FB';letter-spacing:0px;word-spacing:0px;fill:#000000;fill-opacity:1;stroke:none"
         id="flowRoot835-4-2"
         xml:space="preserve"><flowRegion
           id="flowRegion837-5-8"><rect
             y="618.23395"
             x="225"
             height="46.428555"
             width="54.285732"
             id="rect839-4-2" /></flowRegion><flowPara
           style="font-style:normal;font-variant:normal;font-weight:normal;font-stretch:normal;font-size:16px;font-family:Arial;-inkscape-font-specification:Arial"
           id="flowPara841-6-2">245</flowPara></flowRoot>    </g>
  </g>
</svg>
