<?xml version="1.0" standalone="no"?>
<!DOCTYPE svg PUBLIC "-//W3C//DTD SVG 20010904//EN"
 "http://www.w3.org/TR/2001/REC-SVG-20010904/DTD/svg10.dtd">
<svg version="1.0" xmlns="http://www.w3.org/2000/svg"
 width="840.000000pt" height="808.000000pt" viewBox="0 0 840.000000 808.000000"
 preserveAspectRatio="xMidYMid meet">
<metadata>
Created by potrace 1.16, written by Peter Selinger 2001-2019
</metadata>
<g transform="translate(0.000000,808.000000) scale(0.100000,-0.100000)"
fill="#000000" stroke="none">
<path d="M2726 7950 c-695 -88 -1320 -589 -1782 -1429 -152 -276 -294 -651
-294 -776 0 -100 109 -168 215 -133 58 19 96 77 140 210 271 820 694 1393
1235 1672 238 123 416 170 635 170 163 0 237 -15 353 -71 112 -54 241 -185
304 -308 162 -317 169 -669 27 -1282 -99 -429 -692 -2793 -734 -2928 -235
-754 -591 -1213 -1052 -1351 -74 -23 -113 -27 -249 -32 -177 -5 -274 5 -430
43 -99 23 -257 85 -311 120 l-26 18 104 34 c134 44 227 99 314 188 201 206
270 508 164 717 -34 68 -115 145 -190 182 -93 47 -162 59 -289 54 -85 -4 -121
-11 -189 -37 -209 -77 -371 -237 -448 -441 -43 -117 -57 -203 -50 -329 18
-378 310 -661 808 -785 243 -61 544 -76 734 -38 470 95 864 425 1194 1002 l69
120 33 -97 c155 -471 494 -811 960 -964 683 -224 1409 13 1982 646 251 278
484 640 637 987 74 170 134 349 151 449 11 69 11 79 -7 115 -27 55 -72 76
-151 72 -49 -3 -68 -9 -89 -28 -35 -34 -43 -51 -104 -230 -72 -215 -128 -348
-227 -542 -147 -289 -304 -509 -513 -719 -284 -286 -596 -462 -925 -524 -135
-26 -352 -17 -460 18 -311 101 -492 383 -524 812 -28 375 22 621 543 2650 278
1082 313 1207 382 1383 248 627 635 1013 1092 1088 231 38 611 -24 832 -136
35 -17 59 -35 54 -39 -5 -4 -40 -16 -79 -26 -195 -51 -379 -196 -463 -365 -51
-103 -71 -178 -79 -290 -9 -147 28 -260 118 -355 207 -219 628 -181 877 78
146 153 222 339 222 548 1 441 -363 757 -995 866 -145 24 -450 24 -565 -1
-299 -65 -533 -199 -780 -446 -183 -183 -323 -373 -433 -587 -23 -46 -44 -83
-47 -83 -3 0 -18 39 -34 86 -81 238 -214 453 -385 624 -215 214 -453 338 -768
400 -122 24 -391 35 -507 20z"/>
</g>
</svg>
