<?xml version="1.0" standalone="no"?>
<!DOCTYPE svg PUBLIC "-//W3C//DTD SVG 20010904//EN"
 "http://www.w3.org/TR/2001/REC-SVG-20010904/DTD/svg10.dtd">
<svg version="1.0" xmlns="http://www.w3.org/2000/svg"
 width="384.000000pt" height="496.000000pt" viewBox="0 0 384.000000 496.000000"
 preserveAspectRatio="xMidYMid meet">
<metadata>
Created by potrace 1.16, written by Peter Selinger 2001-2019
</metadata>
<g transform="translate(0.000000,496.000000) scale(0.100000,-0.100000)"
fill="#000000" stroke="none">
<path d="M1236 4774 c-238 -58 -457 -277 -625 -624 -68 -141 -161 -407 -161
-461 0 -54 48 -87 104 -73 33 8 46 34 81 154 114 403 318 721 526 824 119 58
234 70 310 31 20 -11 39 -34 55 -68 20 -44 24 -67 24 -152 -1 -162 -26 -257
-170 -635 -158 -413 -286 -816 -341 -1075 -21 -96 -24 -136 -23 -320 0 -244
12 -306 88 -460 95 -192 251 -309 492 -371 335 -85 654 -8 919 224 44 39 81
69 83 67 4 -4 -43 -190 -89 -347 -192 -658 -589 -1135 -1024 -1229 -85 -18
-256 -16 -335 4 -155 41 -271 126 -334 247 l-37 70 59 0 c156 0 283 81 346
222 66 144 30 268 -94 334 -26 14 -57 19 -120 19 -76 0 -92 -3 -152 -33 -142
-70 -218 -212 -218 -405 1 -252 151 -459 404 -558 366 -142 880 -15 1288 318
83 68 241 227 309 313 137 171 271 410 339 605 27 78 748 2920 781 3080 21
102 -9 179 -84 218 -118 61 -270 7 -339 -120 -20 -35 -107 -366 -312 -1179
-157 -621 -290 -1146 -296 -1166 -29 -101 -227 -332 -365 -427 -147 -102 -266
-141 -431 -141 -120 0 -180 16 -254 67 -149 105 -219 345 -191 652 31 325 127
669 371 1326 59 160 115 322 124 362 73 324 -109 635 -415 708 -79 18 -214 18
-293 -1z"/>
</g>
</svg>
